<svg width="32" height="32" viewBox="0 0 27 27" fill="none" xmlns="http://www.w3.org/2000/svg">
<path d="M27 13.5C27 10.83 26.2082 8.21987 24.7248 5.99981C23.2414 3.77974 21.133 2.04942 18.6662 1.02763C16.1994 0.00584889 13.485 -0.261496 10.8663 0.259404C8.24754 0.780304 5.84207 2.06606 3.95406 3.95406C2.06605 5.84207 0.7803 8.24754 0.259399 10.8663C-0.261502 13.485 0.0058415 16.1994 1.02763 18.6662C2.04941 21.133 3.77974 23.2414 5.9998 24.7248C8.21986 26.2082 10.83 27 13.5 27C17.0788 26.9947 20.5095 25.5707 23.0401 23.0401C25.5707 20.5095 26.9947 17.0788 27 13.5ZM2 13.5C2 11.2255 2.67446 9.00211 3.9381 7.11095C5.20173 5.21978 6.99779 3.7458 9.09914 2.87539C11.2005 2.00498 13.5128 1.77724 15.7435 2.22097C17.9743 2.66471 20.0234 3.75997 21.6317 5.36828C23.24 6.97658 24.3353 9.02569 24.779 11.2565C25.2228 13.4872 24.995 15.7995 24.1246 17.9009C23.2542 20.0022 21.7802 21.7983 19.8891 23.0619C17.9979 24.3255 15.7745 25 13.5 25C10.4508 24.9974 7.52729 23.7849 5.3712 21.6288C3.2151 19.4727 2.00265 16.5492 2 13.5Z" fill="black"/>
<path d="M19.2099 11.7199C19.3037 11.627 19.3781 11.5164 19.4288 11.3945C19.4796 11.2727 19.5057 11.142 19.5057 11.0099C19.5057 10.8779 19.4796 10.7472 19.4288 10.6254C19.3781 10.5035 19.3037 10.3929 19.2099 10.2999C19.0226 10.1137 18.7691 10.0092 18.5049 10.0092C18.2408 10.0092 17.9873 10.1137 17.7999 10.2999L13.4999 14.5799L9.19994 10.2999C9.10698 10.2062 8.99638 10.1318 8.87452 10.0811C8.75266 10.0303 8.62195 10.0041 8.48994 10.0041C8.35793 10.0041 8.22722 10.0303 8.10536 10.0811C7.9835 10.1318 7.8729 10.2062 7.77994 10.2999C7.59885 10.4878 7.49837 10.739 7.49994 10.9999C7.49918 11.1316 7.5244 11.262 7.57417 11.3839C7.62393 11.5057 7.69726 11.6165 7.78994 11.7099L12.8399 16.7099C13.0273 16.8962 13.2808 17.0007 13.5449 17.0007C13.8091 17.0007 14.0626 16.8962 14.2499 16.7099L19.2099 11.7199Z" fill="black"/>
</svg>
