<svg width="47" height="47" viewBox="0 0 47 47" fill="none" xmlns="http://www.w3.org/2000/svg">
<path d="M23.5 0C18.8521 0 14.3087 1.37825 10.4441 3.96046C6.57955 6.54268 3.5675 10.2129 1.78884 14.5069C0.0101822 18.801 -0.455196 23.5261 0.451556 28.0846C1.35831 32.6432 3.59647 36.8305 6.883 40.117C10.1695 43.4035 14.3568 45.6417 18.9154 46.5484C23.4739 47.4552 28.199 46.9898 32.4931 45.2112C36.7871 43.4325 40.4573 40.4204 43.0395 36.5559C45.6217 32.6913 47 28.1479 47 23.5C46.9908 17.2702 44.5119 11.2983 40.1068 6.89316C35.7017 2.48805 29.7298 0.00920882 23.5 0ZM23.5 43.5185C19.5407 43.5185 15.6703 42.3444 12.3783 40.1448C9.08629 37.9451 6.52046 34.8186 5.00531 31.1607C3.49016 27.5028 3.09372 23.4778 3.86614 19.5946C4.63856 15.7114 6.54514 12.1444 9.34478 9.34477C12.1444 6.54513 15.7114 4.63855 19.5946 3.86613C23.4778 3.09371 27.5029 3.49014 31.1608 5.0053C34.8187 6.52045 37.9451 9.08628 40.1448 12.3783C42.3445 15.6703 43.5185 19.5407 43.5185 23.5C43.5139 28.8078 41.4033 33.8969 37.6501 37.6501C33.8969 41.4033 28.8078 43.5139 23.5 43.5185Z" fill="black"/>
<path d="M20.4014 13.5603C20.2396 13.3972 20.047 13.2677 19.8349 13.1793C19.6228 13.0909 19.3953 13.0454 19.1655 13.0454C18.9357 13.0454 18.7082 13.0909 18.496 13.1793C18.2839 13.2677 18.0914 13.3972 17.9296 13.5603C17.6053 13.8865 17.4234 14.3277 17.4234 14.7875C17.4234 15.2474 17.6053 15.6886 17.9296 16.0148L25.3799 23.4999L17.9296 30.9851C17.7664 31.1469 17.6369 31.3395 17.5485 31.5516C17.4601 31.7637 17.4146 31.9913 17.4146 32.2211C17.4146 32.4509 17.4601 32.6784 17.5485 32.8905C17.6369 33.1026 17.7664 33.2952 17.9296 33.457C18.2566 33.7722 18.6939 33.9471 19.1481 33.9444C19.3772 33.9457 19.6043 33.9018 19.8163 33.8152C20.0284 33.7285 20.2213 33.6009 20.384 33.4396L29.0877 24.6488C29.4119 24.3227 29.5939 23.8815 29.5939 23.4216C29.5939 22.9617 29.4119 22.5205 29.0877 22.1944L20.4014 13.5603Z" fill="black"/>
</svg>
