<svg width="30" height="30" viewBox="0 0 30 30" fill="none" xmlns="http://www.w3.org/2000/svg">
<path d="M4.7197 0C2.11308 0 0 2.11308 0 4.7197V18.2045C0 20.8112 2.11308 22.9242 4.7197 22.9242H6.69452C7.23098 22.9242 7.74546 23.1373 8.12479 23.5167L13.6414 29.0333C14.2997 29.6916 15.367 29.6916 16.0252 29.0333L21.5419 23.5167C21.9212 23.1373 22.4357 22.9242 22.9721 22.9242H24.947C27.5536 22.9242 29.6667 20.8112 29.6667 18.2045V11.4621C29.6667 10.7174 29.0629 10.1136 28.3182 10.1136C27.5734 10.1136 26.9697 10.7174 26.9697 11.4621V18.2045C26.9697 19.3217 26.0641 20.2273 24.947 20.2273H22.9721C21.7204 20.2273 20.52 20.7245 19.6348 21.6096L14.8333 26.4111L10.0319 21.6096C9.14674 20.7245 7.94625 20.2273 6.69452 20.2273H4.7197C3.60258 20.2273 2.69697 19.3217 2.69697 18.2045V4.7197C2.69697 3.60258 3.60258 2.69697 4.7197 2.69697H18.2045C18.9493 2.69697 19.553 2.09322 19.553 1.34848C19.553 0.603737 18.9493 0 18.2045 0H4.7197Z" fill="black"/>
<path fill-rule="evenodd" clip-rule="evenodd" d="M26.4377 0.87174C25.6478 0.0818176 24.3671 0.0818142 23.5772 0.87174L14.8612 9.58764C14.192 10.2569 13.7787 11.1395 13.693 12.082L13.5252 13.9276C13.4108 15.1856 14.4647 16.2395 15.7227 16.1251L17.5683 15.9573C18.5108 15.8717 19.3935 15.4583 20.0627 14.7891L28.7786 6.07315C29.5685 5.28324 29.5685 4.00252 28.7786 3.21258L26.4377 0.87174ZM16.7683 11.4947L25.0074 3.25556L26.3948 4.64288L18.1556 12.882C17.9325 13.1051 17.6383 13.2429 17.3242 13.2715L16.2843 13.366L16.3788 12.3261C16.4074 12.012 16.5452 11.7178 16.7683 11.4947Z" fill="black"/>
</svg>
