<svg width="39" height="28" viewBox="0 0 39 28" fill="none" xmlns="http://www.w3.org/2000/svg">
<path d="M38.2533 11.6558C35.5455 8.15033 28.2984 0 19.5001 0C10.7018 0 3.45281 8.1523 0.746862 11.6558C-0.248633 12.9396 -0.248634 14.7346 0.74494 16.0164C3.45281 19.5219 10.7019 27.6742 19.5001 27.6742C28.2984 27.6742 35.5474 19.5219 38.2534 16.0184C39.2489 14.7346 39.2488 12.9396 38.2533 11.6558ZM35.8203 14.1369C33.9253 16.5911 27.1411 24.5996 19.498 24.5996C11.8549 24.5996 5.07279 16.5914 3.17371 14.1369C3.03341 13.9543 3.03341 13.7198 3.17563 13.5372C5.07058 11.083 11.8548 3.07455 19.4979 3.07455C27.141 3.07455 33.9231 11.0827 35.8202 13.5372L35.8222 13.5392C35.9625 13.7217 35.9625 13.9562 35.8202 14.1388L35.8203 14.1369Z" fill="black"/>
<path d="M19.5 6.15002C15.2624 6.15002 11.8127 9.5978 11.8127 13.8374C11.8127 18.077 15.2624 21.5248 19.5 21.5248C23.7377 21.5248 27.1874 18.077 27.1874 13.8374C27.1874 9.5978 23.7377 6.15002 19.5 6.15002ZM19.5 18.4498C16.9574 18.4498 14.8876 16.38 14.8876 13.8374C14.8876 11.2948 16.9574 9.22497 19.5 9.22497C22.0427 9.22497 24.1125 11.2948 24.1125 13.8374C24.1125 16.38 22.0427 18.4498 19.5 18.4498Z" fill="black"/>
</svg>
