<svg width="28" height="31" viewBox="0 0 28 31" fill="none" xmlns="http://www.w3.org/2000/svg">
<path d="M8.80634 11.1646H11.1597V21.3264H8.80634V11.1646Z" fill="black"/>
<path d="M16.2996 11.1646H18.653V21.3264H16.2996V11.1646Z" fill="black"/>
<path d="M27.4593 4.99386H19.7827C19.232 2.15096 16.7278 0 13.7297 0C10.7315 0 8.22731 2.15099 7.67666 4.99386H0V7.34725H2.43813V23.5904C2.43813 27.1911 5.36577 30.1236 8.9713 30.1236H18.4978C22.0985 30.1236 25.031 27.1959 25.031 23.5904V7.34725H27.4691V4.99386H27.4593ZM13.7297 2.35336C15.4241 2.35336 16.8598 3.46416 17.3586 4.99386H10.1007C10.5996 3.46416 12.0352 2.35336 13.7297 2.35336ZM22.6727 23.5904C22.6727 25.892 20.7994 27.77 18.4931 27.77H8.96654C6.66493 27.77 4.78691 25.8967 4.78691 23.5904V7.34722H22.6727V23.5904Z" fill="black"/>
</svg>
